<svg width="195" height="77" viewBox="0 0 195 77" fill="none" xmlns="http://www.w3.org/2000/svg">
<path d="M38.4935 17.3816H0V21.9085H38.4935V17.3816Z" fill="white"/>
<path d="M57.0958 9.26733H51.5537V32.5424H57.0958V9.26733Z" fill="white"/>
<path d="M54.3462 0C53.487 0 52.7137 0.298946 52.0693 0.854132C51.4249 1.40932 51.1241 2.13533 51.1241 2.98946C51.1241 3.80089 51.4249 4.5269 52.0693 5.08209C52.7137 5.67998 53.444 5.93622 54.3462 5.93622C55.2055 5.93622 55.9788 5.63727 56.5802 5.08209C57.2247 4.48419 57.5254 3.80089 57.5254 2.98946C57.5254 2.17804 57.2247 1.45202 56.5802 0.854132C55.9788 0.298946 55.2055 0 54.3462 0Z" fill="white"/>
<path d="M77.9321 9.99334C76.7292 9.31004 75.3114 8.96839 73.6789 8.96839C71.9175 8.96839 70.4568 9.35275 69.2968 10.1215C68.0939 10.8902 67.2347 11.9151 66.7191 13.239H66.4614V9.26733H61.1771V32.5424H66.7191V18.8763C66.7191 17.7659 66.9339 16.7837 67.3636 16.015C67.7932 15.2463 68.3517 14.6057 69.125 14.2213C69.8983 13.8369 70.7146 13.5807 71.7027 13.5807C73.1204 13.5807 74.2374 14.0078 75.0537 14.9046C75.8699 15.8014 76.2566 16.9972 76.2566 18.5774V32.5424H81.7986V17.7232C81.7986 15.8441 81.4979 14.264 80.8105 12.9828C80.0802 11.6589 79.135 10.6767 77.9321 9.99334Z" fill="white"/>
<path d="M87.2118 26.4781C87.2118 27.9301 87.5125 29.1259 88.1569 30.1082C88.8013 31.0904 89.6606 31.7737 90.7776 32.2435C91.8946 32.7133 93.1404 32.9268 94.5152 32.8841C95.2885 32.8841 95.9759 32.7987 96.4914 32.6706C97.0499 32.5424 97.4366 32.457 97.7373 32.3289L96.7922 28.0582C96.6203 28.1009 96.4055 28.1437 96.1477 28.1864C95.847 28.2291 95.5463 28.2718 95.2026 28.2718C94.73 28.2718 94.3434 28.1864 93.9567 28.0582C93.57 27.9301 93.2693 27.6312 93.0545 27.2468C92.8397 26.8624 92.7108 26.3073 92.7108 25.5385V13.4953H97.3507V9.26733H92.7108V3.67277H87.2118V9.26733H83.9037V13.4953H87.2118V26.4781Z" fill="white"/>
<path d="M104.267 31.5175C105.943 32.4997 107.919 33.0122 110.196 33.0122C112.473 33.0122 114.449 32.4997 116.125 31.5175C117.8 30.5352 119.089 29.1259 120.034 27.3322C120.936 25.5385 121.409 23.4459 121.409 21.0116C121.409 18.6201 120.936 16.4847 120.034 14.6911C119.132 12.8974 117.8 11.4881 116.125 10.4631C114.449 9.43816 112.473 8.96839 110.196 8.96839C107.919 8.96839 105.943 9.48087 104.267 10.4631C102.592 11.4454 101.303 12.8547 100.358 14.6911C99.4558 16.4847 98.9832 18.6201 98.9832 21.0116C98.9832 23.4032 99.4558 25.5385 100.358 27.3322C101.303 29.1259 102.592 30.4925 104.267 31.5175ZM105.213 17.1253C105.642 15.9723 106.244 15.0327 107.103 14.3494C107.962 13.6661 108.993 13.3245 110.282 13.3245C111.528 13.3245 112.559 13.6661 113.375 14.3494C114.192 15.0327 114.836 15.9723 115.266 17.1253C115.695 18.2784 115.867 19.5596 115.867 21.0116C115.867 22.421 115.652 23.7022 115.266 24.8552C114.836 26.0083 114.235 26.9052 113.375 27.5885C112.516 28.2718 111.485 28.6134 110.282 28.6134C108.993 28.6134 107.962 28.2718 107.103 27.5885C106.244 26.9052 105.642 26.0083 105.213 24.8552C104.783 23.7022 104.611 22.421 104.611 21.0116C104.611 19.5596 104.826 18.2784 105.213 17.1253Z" fill="white"/>
<path d="M135.629 26.4781C135.629 27.9301 135.93 29.1259 136.574 30.1082C137.219 31.0904 138.078 31.7737 139.195 32.2435C140.312 32.7133 141.558 32.9268 142.933 32.8841C143.706 32.8841 144.393 32.7987 144.909 32.6706C145.467 32.5424 145.854 32.457 146.155 32.3289L145.21 28.0582C145.038 28.1009 144.823 28.1437 144.565 28.1864C144.308 28.2291 143.964 28.2718 143.62 28.2718C143.148 28.2718 142.761 28.1864 142.374 28.0582C141.988 27.9301 141.687 27.6312 141.472 27.2468C141.257 26.8624 141.128 26.3073 141.128 25.5385V13.4953H145.768V9.26733H141.128V3.67277H135.586V9.26733H132.321V13.4953H135.629V26.4781Z" fill="white"/>
<path d="M166.089 9.99334C164.886 9.31004 163.468 8.96839 161.836 8.96839C160.031 8.96839 158.571 9.35275 157.411 10.1215C156.251 10.8902 155.392 11.9151 154.876 13.239H154.618V1.49473H149.205V32.5424H154.747V18.8763C154.747 17.7659 154.962 16.7837 155.392 16.015C155.821 15.2463 156.423 14.6057 157.196 14.2213C157.969 13.7942 158.828 13.5807 159.817 13.5807C161.277 13.5807 162.394 14.0078 163.211 14.9046C164.027 15.7587 164.413 16.9972 164.413 18.5774V32.5424H169.956V17.7232C169.956 15.8441 169.612 14.264 168.967 12.9401C168.323 11.6162 167.292 10.6767 166.089 9.99334Z" fill="white"/>
<path d="M178.075 31.5602C179.794 32.5424 181.813 33.0122 184.176 33.0122C185.98 33.0122 187.613 32.756 189.03 32.2008C190.448 31.6456 191.608 30.8769 192.51 29.8519C193.412 28.827 194.057 27.6739 194.358 26.3073L189.202 25.7521C188.944 26.3927 188.601 26.9479 188.128 27.4176C187.656 27.8447 187.097 28.1864 186.453 28.4426C185.808 28.6561 185.078 28.7843 184.262 28.7843C183.059 28.7843 182.028 28.528 181.126 28.0155C180.223 27.503 179.536 26.777 179.02 25.7948C178.548 24.8552 178.29 23.7449 178.29 22.4637H194.615V20.7981C194.615 18.7482 194.315 16.9972 193.756 15.5025C193.198 14.0078 192.424 12.812 191.393 11.8297C190.405 10.8902 189.245 10.1642 187.956 9.6944C186.668 9.22463 185.293 8.96839 183.875 8.96839C181.641 8.96839 179.708 9.48087 178.032 10.5058C176.357 11.5308 175.068 12.9401 174.166 14.7338C173.264 16.5275 172.791 18.6628 172.791 21.0544C172.791 23.4886 173.264 25.624 174.166 27.4176C175.068 29.2113 176.357 30.5779 178.075 31.5602ZM178.977 16.1858C179.45 15.3317 180.094 14.6057 180.954 14.0505C181.813 13.4953 182.801 13.239 183.918 13.239C184.992 13.239 185.894 13.4953 186.71 13.9651C187.527 14.4348 188.128 15.0754 188.558 15.9296C188.987 16.741 189.245 17.6805 189.245 18.7482H178.29C178.333 17.8087 178.548 16.9545 178.977 16.1858Z" fill="white"/>
<path d="M16.712 48.4293H16.4113C16.1535 47.8741 15.7239 47.2762 15.2084 46.6356C14.6928 45.995 13.9625 45.4398 13.0603 44.9701C12.1581 44.5003 11.0411 44.2867 9.66633 44.2867C7.86195 44.2867 6.22941 44.7565 4.76872 45.6534C3.30803 46.5502 2.14807 47.9168 1.28884 49.6678C0.429614 51.4188 0 53.5968 0 56.1592C0 58.6789 0.429614 60.8142 1.28884 62.4798C2.14807 64.1453 3.30803 65.4265 4.76872 66.2806C6.22941 67.1348 7.86195 67.5618 9.66633 67.5618C10.9981 67.5618 12.1151 67.3483 13.0173 66.964C13.9195 66.5796 14.6069 66.0671 15.1654 65.4692C15.7239 64.8713 16.1105 64.2734 16.4113 63.7182H16.669V68.117C16.669 69.7826 16.1535 70.9784 15.1224 71.7471C14.0914 72.5158 12.8025 72.8575 11.2129 72.8575C10.0959 72.8575 9.19375 72.7293 8.46341 72.4304C7.73306 72.1315 7.17456 71.7471 6.74495 71.32C6.31533 70.893 5.97164 70.4659 5.75683 70.0388L0.773306 71.2346C1.117 72.3023 1.71846 73.2418 2.57769 74.1387C3.43692 75.0355 4.59688 75.7188 6.0146 76.2313C7.43233 76.7438 9.15079 77 11.127 77C13.2321 77 15.1224 76.6583 16.755 76.0178C18.4305 75.3772 19.7193 74.3949 20.6645 73.1137C21.6096 71.8325 22.0822 70.2096 22.0822 68.2451V44.5857H16.712V48.4293ZM16.0676 59.9601C15.638 61.0277 14.9935 61.8392 14.1773 62.3943C13.361 62.9495 12.3729 63.2485 11.17 63.2485C9.96706 63.2485 8.93598 62.9495 8.11971 62.3516C7.30345 61.7537 6.65903 60.9423 6.22941 59.8747C5.7998 58.807 5.58499 57.5685 5.58499 56.1165C5.58499 54.7071 5.7998 53.4687 6.22941 52.3583C6.65903 51.2479 7.26049 50.3938 8.07675 49.7532C8.89302 49.1126 9.9241 48.8136 11.17 48.8136C12.3729 48.8136 13.361 49.1126 14.1773 49.7105C14.9935 50.3084 15.595 51.1625 16.0246 52.2729C16.4542 53.3833 16.669 54.6644 16.669 56.1165C16.712 57.6112 16.4972 58.8924 16.0676 59.9601Z" fill="white"/>
<path d="M43.3911 45.995C42.4459 45.3971 41.4578 44.97 40.3408 44.7138C39.2238 44.4576 38.1068 44.3295 36.9898 44.3295C35.3573 44.3295 33.8536 44.5857 32.5218 45.0555C31.19 45.5252 30.0301 46.2512 29.0849 47.1908C28.1397 48.1303 27.4953 49.3261 27.0657 50.7354L32.2211 51.4615C32.4789 50.65 33.0374 49.9667 33.8107 49.3688C34.584 48.7709 35.658 48.472 37.0328 48.472C38.3216 48.472 39.3097 48.7709 39.9971 49.4115C40.6845 50.0521 41.0282 50.9063 41.0282 52.0593V52.1448C41.0282 52.6572 40.8134 53.0416 40.4267 53.2978C40.0401 53.5541 39.3956 53.7249 38.5364 53.853C37.6772 53.9811 36.5602 54.1093 35.1854 54.2374C34.0255 54.3655 32.9514 54.5363 31.8774 54.8353C30.8034 55.0915 29.8582 55.4759 28.999 56.0311C28.1398 56.5435 27.4953 57.2268 26.9798 58.081C26.5072 58.9351 26.2494 60.0455 26.2494 61.3267C26.2494 62.8641 26.5931 64.1453 27.2805 65.1703C27.9679 66.1952 28.9131 67.0067 30.073 67.5191C31.2759 68.0316 32.6077 68.3306 34.0684 68.3306C35.2714 68.3306 36.3454 68.1597 37.2476 67.8181C38.1498 67.4764 38.9231 67.0494 39.5245 66.4515C40.126 65.8963 40.5986 65.2984 40.9423 64.6578H41.1141V67.8608H46.4413V52.2729C46.4413 50.7354 46.1406 49.4542 45.5821 48.3866C45.0666 47.4043 44.2933 46.5929 43.3911 45.995ZM40.9423 59.533C40.9423 60.3871 40.7275 61.1986 40.2978 61.9246C39.8682 62.6506 39.2238 63.2485 38.4075 63.6755C37.5913 64.1026 36.6461 64.3161 35.5291 64.3161C34.3692 64.3161 33.424 64.0599 32.6937 63.5474C31.9633 63.0349 31.5767 62.2662 31.5767 61.2413C31.5767 60.5153 31.7485 59.9601 32.1352 59.4903C32.5218 59.0205 33.0374 58.6789 33.6818 58.4226C34.3262 58.1664 35.0565 57.9956 35.9158 57.8674C36.3024 57.8247 36.732 57.7393 37.2046 57.6966C37.6772 57.6539 38.1927 57.5258 38.7083 57.4404C39.2238 57.355 39.6964 57.2268 40.083 57.1414C40.5126 57.0133 40.7704 56.8852 40.9423 56.7571V59.533Z" fill="white"/>
<path d="M57.0958 36.8131H51.5537V67.8608H57.0958V36.8131Z" fill="white"/>
<path d="M78.3187 45.995C77.3736 45.3971 76.3855 44.97 75.2685 44.7138C74.1515 44.4576 73.0345 44.3295 71.9175 44.3295C70.2849 44.3295 68.7813 44.5857 67.4495 45.0555C66.1177 45.5252 64.9577 46.2512 64.0126 47.1908C63.0674 48.1303 62.423 49.3261 61.9934 50.7354L67.1488 51.4615C67.4065 50.65 67.965 49.9667 68.7383 49.3688C69.5116 48.7709 70.5857 48.472 71.9604 48.472C73.2493 48.472 74.2374 48.7709 74.9248 49.4115C75.6122 50.0521 75.9559 50.9063 75.9559 52.0593V52.1448C75.9559 52.6572 75.741 53.0416 75.3544 53.2978C74.9677 53.5541 74.3233 53.7249 73.4641 53.853C72.6049 53.9811 71.4879 54.1093 70.1131 54.2374C68.9531 54.3655 67.8791 54.5363 66.8051 54.8353C65.731 55.0915 64.7859 55.4759 63.9266 56.0311C63.0674 56.5435 62.423 57.2268 61.9075 58.081C61.4349 58.9351 61.1771 60.0455 61.1771 61.3267C61.1771 62.8641 61.5208 64.1453 62.2082 65.1703C62.8956 66.1952 63.8407 67.0067 65.0007 67.5191C66.2036 68.0316 67.5354 68.3306 68.9961 68.3306C70.199 68.3306 71.2731 68.1597 72.1752 67.8181C73.0774 67.4764 73.8507 67.0494 74.4522 66.4515C75.0537 65.8963 75.5262 65.2984 75.8699 64.6578H76.0418V67.8608H81.369V52.2729C81.369 50.7354 81.0683 49.4542 80.5098 48.3866C79.9942 47.4043 79.2639 46.5929 78.3187 45.995ZM75.9129 59.533C75.9129 60.3871 75.6981 61.1986 75.2685 61.9246C74.8389 62.6506 74.1944 63.2485 73.3782 63.6755C72.5619 64.1026 71.6167 64.3161 70.4997 64.3161C69.3398 64.3161 68.3946 64.0599 67.6643 63.5474C66.9339 63.0349 66.5473 62.2662 66.5473 61.2413C66.5473 60.5153 66.7191 59.9601 67.1058 59.4903C67.4924 59.0205 68.008 58.6789 68.6524 58.4226C69.2968 58.1664 70.0272 57.9956 70.8864 57.8674C71.273 57.8247 71.7027 57.7393 72.1752 57.6966C72.6478 57.6539 73.1634 57.5258 73.6789 57.4404C74.1944 57.355 74.667 57.2268 75.0537 57.1414C75.4833 57.0133 75.741 56.8852 75.9129 56.7571V59.533Z" fill="white"/>
<path d="M95.2885 61.8819H95.0737L89.6606 44.5857H83.7748L92.1523 67.9035H98.2528L106.587 44.5857H100.702L95.2885 61.8819Z" fill="white"/>
<path d="M126.693 47.1054C125.705 46.1658 124.545 45.4398 123.256 44.9701C121.968 44.5003 120.593 44.2867 119.175 44.2867C116.941 44.2867 115.008 44.7992 113.332 45.8242C111.657 46.8491 110.368 48.2585 109.466 50.0521C108.564 51.8458 108.091 53.9811 108.091 56.3727C108.091 58.807 108.564 60.9423 109.466 62.736C110.368 64.5297 111.7 65.8963 113.375 66.8785C115.094 67.8608 117.113 68.3306 119.476 68.3306C121.28 68.3306 122.913 68.0743 124.33 67.5191C125.748 66.964 126.908 66.1952 127.81 65.1703C128.713 64.1453 129.357 62.9922 129.658 61.6256L124.502 61.0704C124.245 61.711 123.901 62.2662 123.428 62.736C122.956 63.1631 122.397 63.5047 121.753 63.761C121.108 63.9745 120.378 64.1026 119.562 64.1026C118.359 64.1026 117.328 63.8464 116.426 63.3339C115.523 62.8214 114.836 62.0954 114.32 61.1131C113.848 60.1736 113.59 59.0632 113.59 57.782H129.915V56.1165C129.915 54.0666 129.615 52.3156 129.056 50.8209C128.498 49.2834 127.724 48.0876 126.693 47.1054ZM113.59 54.0239C113.633 53.127 113.891 52.2729 114.277 51.5042C114.75 50.65 115.394 49.924 116.254 49.3688C117.113 48.8136 118.101 48.5574 119.218 48.5574C120.292 48.5574 121.194 48.8136 122.011 49.2834C122.827 49.7532 123.428 50.3938 123.858 51.2479C124.287 52.0593 124.545 52.9989 124.545 54.0666H113.59V54.0239Z" fill="white"/>
<path d="M145.467 44.244C144.136 44.244 142.933 44.6284 141.902 45.3544C140.871 46.0804 140.14 47.1054 139.711 48.472H139.453V44.5857H134.083V67.9035H139.625V54.1947C139.625 53.2124 139.84 52.3156 140.312 51.5896C140.785 50.8209 141.386 50.223 142.202 49.7959C143.019 49.3688 143.921 49.1553 144.909 49.1553C145.382 49.1553 145.854 49.198 146.37 49.2407C146.885 49.3261 147.229 49.3688 147.487 49.4542V44.4149C147.229 44.3722 146.928 44.3294 146.542 44.2867C146.112 44.2867 145.811 44.244 145.467 44.244Z" fill="white"/>
<path d="M163.125 54.6217L159.129 53.7676C157.926 53.5114 157.067 53.127 156.594 52.6999C156.122 52.2729 155.821 51.7177 155.821 51.0344C155.821 50.2657 156.208 49.6251 156.981 49.1126C157.754 48.6001 158.743 48.3866 159.86 48.3866C160.719 48.3866 161.449 48.5147 162.008 48.8136C162.609 49.0699 163.082 49.4542 163.425 49.8813C163.769 50.3084 164.027 50.8209 164.156 51.2906L169.182 50.7354C168.796 48.7709 167.807 47.1908 166.261 46.0377C164.671 44.8846 162.523 44.2867 159.774 44.2867C157.883 44.2867 156.251 44.5857 154.833 45.1409C153.415 45.7388 152.298 46.5502 151.482 47.6179C150.666 48.6855 150.279 49.924 150.279 51.376C150.279 53.0843 150.795 54.4936 151.869 55.604C152.943 56.7144 154.618 57.4831 156.852 57.9529L160.848 58.807C161.922 59.0205 162.738 59.3622 163.254 59.7892C163.769 60.2163 164.027 60.7715 164.027 61.4548C164.027 62.2235 163.64 62.9068 162.824 63.462C162.008 64.0172 160.977 64.2734 159.645 64.2734C158.356 64.2734 157.325 64.0172 156.552 63.462C155.778 62.9068 155.22 62.1381 155.005 61.0704L149.635 61.5829C149.978 63.7182 151.01 65.3838 152.771 66.5796C154.532 67.7754 156.809 68.3733 159.688 68.3733C161.621 68.3733 163.382 68.0743 164.886 67.4337C166.39 66.7931 167.55 65.939 168.409 64.8286C169.268 63.7182 169.698 62.437 169.698 60.9423C169.698 59.2768 169.139 57.9102 168.065 56.8852C166.991 55.8175 165.316 55.0915 163.125 54.6217Z" fill="white"/>
<path d="M194.572 56.0738C194.572 54.0238 194.272 52.2729 193.713 50.7781C193.155 49.2834 192.381 48.0876 191.35 47.1054C190.362 46.1658 189.202 45.4398 187.913 44.9701C186.625 44.5003 185.25 44.2867 183.832 44.2867C181.598 44.2867 179.665 44.7992 177.989 45.8242C176.314 46.8491 175.025 48.2585 174.123 50.0521C173.221 51.8458 172.748 53.9811 172.748 56.3727C172.748 58.807 173.221 60.9423 174.123 62.736C175.025 64.5297 176.357 65.8963 178.032 66.8785C179.751 67.8608 181.77 68.3306 184.133 68.3306C185.937 68.3306 187.57 68.0743 188.987 67.5191C190.405 66.964 191.565 66.1952 192.467 65.1703C193.37 64.1453 194.014 62.9922 194.315 61.6256L189.159 61.0704C188.902 61.711 188.558 62.2662 188.085 62.736C187.613 63.1631 187.054 63.5047 186.41 63.761C185.765 63.9745 185.035 64.1026 184.219 64.1026C183.016 64.1026 181.985 63.8464 181.083 63.3339C180.18 62.8214 179.493 62.0954 178.977 61.1131C178.505 60.1736 178.247 59.0632 178.247 57.782H194.572V56.0738ZM178.29 54.0239C178.333 53.127 178.591 52.2729 178.977 51.5042C179.45 50.65 180.094 49.924 180.954 49.3688C181.813 48.8136 182.801 48.5574 183.918 48.5574C184.992 48.5574 185.894 48.8136 186.71 49.2834C187.527 49.7532 188.128 50.3938 188.558 51.2479C188.987 52.0593 189.245 52.9989 189.245 54.0666H178.29V54.0239Z" fill="white"/>
</svg>
