<svg width="47" height="52" viewBox="0 0 47 52" fill="none" xmlns="http://www.w3.org/2000/svg">
<path d="M23.0645 0L0.837891 11.7625L23.0645 24.3226L31.5559 19.5206L27.9738 17.5029L23.0645 20.2873L8.16158 11.8562L23.0645 3.97287L24.518 4.73957L37.9819 11.8585L41.6596 13.8144L45.2895 11.7652L23.0645 0Z" fill="white"/>
<path d="M13.4837 21.3012V25.3523L18.3502 28.1945V45.719L3.47147 36.4387V15.4445L0 13.4189V38.4011L21.8065 51.9996V26.1694L13.4837 21.3012Z" fill="white"/>
<path d="M44.2471 14.9585L24.3223 26.1859V36.0458L27.9273 34.0203V28.2114L43.3782 19.5121V36.4555L27.9273 45.7353L24.3223 47.8869V52.0006L46.9674 38.4023V13.4199L44.2471 14.9585Z" fill="white"/>
</svg>
